<svg width="240.04000244140624px" height="113.63999023437499px" xmlns="http://www.w3.org/2000/svg" viewBox="129.97999877929686 18.180004882812504 240.04000244140624 113.63999023437499" style="background: none;" preserveAspectRatio="xMidYMid"><defs><linearGradient id="editing-gradient-gradient" x1="0" x2="1" y1="0.5" y2="0.5" gradientUnits="objectBoundingBox"><stop offset="0" stop-color="#f0f"></stop><stop offset="1" stop-color="#0ff"></stop></linearGradient></defs><g><g transform="translate(168.84499502182007, 101.625)"><path d="M16.06 0.64L16.06 0.64Q8.64 0.64 3.65-3.97L3.65-3.97L6.21-8.32L6.59-8.90L6.98-8.64L6.98-8.64Q6.98-8.51 7.07-8.06L7.07-8.06L7.07-8.06Q7.17-7.62 7.42-7.17L7.42-7.17L7.42-7.17Q7.68-6.72 8.13-6.27L8.13-6.27L8.13-6.27Q9.60-4.80 11.49-4L11.49-4L11.49-4Q13.38-3.20 16.19-3.20L16.19-3.20L16.19-3.20Q19.65-3.20 21.63-4.45L21.63-4.45L21.63-4.45Q23.62-5.70 23.62-7.87L23.62-7.87L23.62-7.87Q23.62-9.73 22.02-10.94L22.02-10.94L22.02-10.94Q20.42-12.16 16.26-13.50L16.26-13.50L16.26-13.50Q5.25-16.64 5.25-22.59L5.25-22.59L5.25-22.59Q5.25-25.98 8.03-27.97L8.03-27.97L8.03-27.97Q10.82-29.95 16-29.95L16-29.95L16-29.95Q19.97-29.95 22.69-28.83L22.69-28.83L22.69-28.83Q25.41-27.71 27.65-25.34L27.65-25.34L25.02-22.14L24.58-21.63L24.26-21.95L24.26-21.95Q24.19-22.66 23.97-23.10L23.97-23.10L23.97-23.10Q23.74-23.55 23.04-24.13L23.04-24.13L23.04-24.13Q21.57-25.28 19.74-25.89L19.74-25.89L19.74-25.89Q17.92-26.50 16.13-26.50L16.13-26.50L16.13-26.50Q13.38-26.50 11.62-25.54L11.62-25.54L11.62-25.54Q9.86-24.58 9.86-22.85L9.86-22.85L9.86-22.85Q9.86-21.25 11.65-19.90L11.65-19.90L11.65-19.90Q13.44-18.56 18.11-17.22L18.11-17.22L18.11-17.22Q23.62-15.55 25.89-13.60L25.89-13.60L25.89-13.60Q28.16-11.65 28.16-8.51L28.16-8.51L28.16-8.51Q28.16-4.54 25.06-1.95L25.06-1.95L25.06-1.95Q21.95 0.64 16.06 0.64L16.06 0.64ZM35.84 10.69L35.84-29.25L40.51-29.25L40.51-23.49L40.51-23.49Q41.47-26.69 43.84-28.29L43.84-28.29L43.84-28.29Q46.21-29.89 49.41-29.89L49.41-29.89L49.41-29.89Q52.74-29.89 55.52-28.19L55.52-28.19L55.52-28.19Q58.30-26.50 59.97-23.10L59.97-23.10L59.97-23.10Q61.63-19.71 61.63-14.85L61.63-14.85L61.63-14.85Q61.63-9.92 59.90-6.37L59.90-6.37L59.90-6.37Q58.18-2.82 55.33-1.02L55.33-1.02L55.33-1.02Q52.48 0.77 49.28 0.77L49.28 0.77L49.28 0.77Q46.66 0.77 44.35-0.45L44.35-0.45L44.35-0.45Q42.05-1.66 40.58-3.84L40.58-3.84L40.58 10.69L35.84 10.69ZM48.51-3.33L48.51-3.33Q52.03-3.33 54.43-5.98L54.43-5.98L54.43-5.98Q56.83-8.64 56.83-14.66L56.83-14.66L56.83-14.66Q56.83-20.10 54.72-23.01L54.72-23.01L54.72-23.01Q52.61-25.92 48.70-25.92L48.70-25.92L48.70-25.92Q45.06-25.92 42.78-22.88L42.78-22.88L42.78-22.88Q40.51-19.84 40.51-13.63L40.51-13.63L40.51-13.63Q40.64-8.58 42.75-5.95L42.75-5.95L42.75-5.95Q44.86-3.33 48.51-3.33L48.51-3.33ZM79.62-29.89L79.62-29.89Q85.89-29.89 89.18-26.62L89.18-26.62L89.18-26.62Q92.48-23.36 92.48-15.55L92.48-15.55L92.48 0L87.49 0L87.49-4.48L87.49-4.48Q84.80 0.70 77.50 0.70L77.50 0.70L77.50 0.70Q72.64 0.70 69.89-1.50L69.89-1.50L69.89-1.50Q67.14-3.71 67.14-7.36L67.14-7.36L67.14-7.36Q67.14-10.43 69.12-12.74L69.12-12.74L69.12-12.74Q71.10-15.04 74.46-16.29L74.46-16.29L74.46-16.29Q77.82-17.54 81.86-17.54L81.86-17.54L81.86-17.54Q85.50-17.54 88.45-17.15L88.45-17.15L88.45-17.15Q88.06-22.08 85.86-24.10L85.86-24.10L85.86-24.10Q83.65-26.11 79.30-26.11L79.30-26.11L79.30-26.11Q77.12-26.11 75.10-25.28L75.10-25.28L75.10-25.28Q73.09-24.45 71.42-22.85L71.42-22.85L69.18-25.79L69.18-25.79Q73.28-29.89 79.62-29.89L79.62-29.89ZM77.95-2.82L77.95-2.82Q82.69-2.82 85.44-5.60L85.44-5.60L85.44-5.60Q88.19-8.38 88.45-13.63L88.45-13.63L88.45-13.63Q85.57-14.08 82.24-14.08L82.24-14.08L82.24-14.08Q77.38-14.08 74.56-12.48L74.56-12.48L74.56-12.48Q71.74-10.88 71.74-7.62L71.74-7.62L71.74-7.62Q71.74-2.82 77.95-2.82L77.95-2.82ZM117.57-29.95L117.57-29.95Q122.24-29.95 125.31-26.75L125.31-26.75L123.26-23.17L123.01-22.59L122.56-22.85L122.56-22.85Q122.37-23.55 122.11-23.97L122.11-23.97L122.11-23.97Q121.86-24.38 121.02-24.90L121.02-24.90L121.02-24.90Q119.36-25.98 117.25-25.98L117.25-25.98L117.25-25.98Q114.94-25.98 112.90-24.83L112.90-24.83L112.90-24.83Q110.85-23.68 109.57-21.34L109.57-21.34L109.57-21.34Q108.29-19.01 108.29-15.49L108.29-15.49L108.29 0.06L103.62 0.06L103.62-29.25L108.42-29.25L108.29-23.87L108.29-23.87Q109.50-26.75 112.03-28.35L112.03-28.35L112.03-28.35Q114.56-29.95 117.57-29.95L117.57-29.95ZM152.70 0.26L140.74-14.66L136.90-11.07L136.90 0L132.22 0L132.22-42.56L137.47-42.56L137.47-42.11L137.47-42.11Q137.09-41.73 136.99-41.28L136.99-41.28L136.99-41.28Q136.90-40.83 136.90-39.74L136.90-39.74L136.90-15.81L151.55-29.38L151.55-29.38Q153.15-29.06 154.94-29.06L154.94-29.06L156.61-29.06L144.32-17.47L158.66 0L152.70 0.26Z" fill="url(#editing-gradient-gradient)"></path></g></g><style>text {
  font-size: 64px;
  font-family: Arial Black;
  dominant-baseline: central;
  text-anchor: middle;
}</style></svg>